<svg width="44" height="44" viewBox="0 0 44 44" fill="none" xmlns="http://www.w3.org/2000/svg">
<path d="M22.0001 0C9.84185 0 0 9.84212 0 22.0001C0 34.158 9.84212 44.0002 22.0001 44.0002C34.1583 44.0002 44.0002 34.158 44.0002 22.0001C44.0002 9.84185 34.158 0 22.0001 0Z" fill="#5794E7"/>
<path d="M27.065 21.9996H23.7912V34.5717H18.9281V21.9996L15.7188 22.0002V17.6693L18.9281 17.6688V15.0272C18.9281 11.5423 20.3177 9.42871 24.1874 9.42871H28.2902V13.7596H25.4758C23.9878 13.7596 23.8886 14.394 23.8886 15.449V17.5625H28.2902L27.7942 21.9998L27.065 21.9996Z" fill="white"/>
</svg>
