<svg width="44" height="44" viewBox="0 0 44 44" fill="none" xmlns="http://www.w3.org/2000/svg">
<path d="M22.0001 0C9.84185 0 0 9.84212 0 22.0001C0 34.158 9.84212 44.0002 22.0001 44.0002C34.1583 44.0002 44.0002 34.158 44.0002 22.0001C44.0002 9.84185 34.158 0 22.0001 0Z" fill="#597EFF"/>
<path d="M28.3096 30.7345L31.9321 12.912C32.2523 11.3434 31.3896 10.7262 30.4039 11.1114L9.11357 19.6753C7.65951 20.2662 7.68475 21.1155 8.86754 21.5006L14.3131 23.275L26.9549 14.9678C27.5463 14.5563 28.0888 14.7884 27.6457 15.1999L17.42 24.8436L17.0257 30.7081C17.5919 30.7081 17.8395 30.4514 18.1344 30.1419L20.7949 27.4672L26.3146 31.7105C27.3255 32.3014 28.0399 31.9936 28.3112 30.7328L28.3096 30.7345Z" fill="white"/>
</svg>
