<svg width="44" height="44" viewBox="0 0 44 44" fill="none" xmlns="http://www.w3.org/2000/svg">
<path fill-rule="evenodd" clip-rule="evenodd" d="M22 44C34.1503 44 44 34.1503 44 22C44 9.84974 34.1503 0 22 0C9.84974 0 0 9.84974 0 22C0 34.1503 9.84974 44 22 44Z" fill="#2C2C2E"/>
<path d="M33.7313 18.4151C31.3921 18.4151 29.1173 17.6481 27.2465 16.2279V26.1297C27.2465 31.1861 23.3871 35.281 18.6252 35.281C13.8633 35.281 10.0039 31.1861 10.0039 26.1297C10.0039 21.0734 13.8633 16.977 18.6252 16.977C19.1018 16.977 19.5634 17.0181 20.0139 17.0976V22.3429C19.5834 22.1714 19.1243 22.0831 18.6608 22.0827C16.5367 22.0827 14.8124 23.9111 14.8124 26.1681C14.8124 28.421 16.5367 30.2507 18.6608 30.2507C20.7836 30.2507 22.5065 28.421 22.5065 26.1681V6.5H27.315C27.315 10.28 30.2034 13.3436 33.7656 13.3436V18.411L33.7313 18.4137" fill="#03FBFF"/>
<path d="M34.622 19.7633C32.2792 19.7625 30.0012 18.9948 28.1358 17.5775V27.4793C28.1358 32.5357 24.2764 36.6307 19.5145 36.6307C14.7539 36.6307 10.8945 32.5357 10.8945 27.4793C10.8945 22.423 14.7539 18.328 19.5145 18.328C19.9911 18.328 20.454 18.3691 20.9046 18.4485V23.6939C20.474 23.5224 20.0149 23.4341 19.5514 23.4337C17.4273 23.4337 15.703 25.262 15.703 27.5191C15.703 29.7733 17.4273 31.603 19.5514 31.603C21.6742 31.603 23.3971 29.7733 23.3971 27.5191V7.84961H28.2056C28.2056 11.6296 31.094 14.6932 34.6562 14.6932V19.7606L34.622 19.7633Z" fill="#FD1753"/>
</svg>
