<svg width="44" height="44" viewBox="0 0 44 44" fill="none" xmlns="http://www.w3.org/2000/svg">
<path fill-rule="evenodd" clip-rule="evenodd" d="M22 44C34.1503 44 44 34.1503 44 22C44 9.84974 34.1503 0 22 0C9.84974 0 0 9.84974 0 22C0 34.1503 9.84974 44 22 44Z" fill="#DF6356"/>
<path d="M34.8385 26.6685V17.3336C34.8385 17.3336 34.8385 12.834 30.4144 12.834H13.5931C13.5931 12.834 9.17188 12.834 9.17188 17.3336V26.6684C9.17188 26.6684 9.17188 31.1673 13.5931 31.1673H30.4145C30.4144 31.1673 34.8385 31.1673 34.8385 26.6685Z" fill="#F6F7F9"/>
<path d="M27.5391 22.0114L19.3516 26.9029V17.1191L27.5391 22.0114Z" fill="#DF6356"/>
</svg>
