<svg width="44" height="44" viewBox="0 0 44 44" fill="none" xmlns="http://www.w3.org/2000/svg">
<path fill-rule="evenodd" clip-rule="evenodd" d="M22 44C34.1503 44 44 34.1503 44 22C44 9.84974 34.1503 0 22 0C9.84974 0 0 9.84974 0 22C0 34.1503 9.84974 44 22 44Z" fill="url(#paint0_linear_687_35909)"/>
<path fill-rule="evenodd" clip-rule="evenodd" d="M33.8341 26.9197C33.8857 26.0091 33.9115 24.3694 33.9115 22.0007C33.9115 19.6313 33.8857 17.9916 33.8341 17.0816C33.731 14.9295 33.0897 13.264 31.9103 12.0852C30.7308 10.9063 29.0654 10.265 26.9139 10.1613C26.0038 10.1098 24.3641 10.084 21.9948 10.084C19.6255 10.084 17.9858 10.1098 17.0757 10.1613C14.9236 10.2644 13.2582 10.9057 12.0793 12.0852C10.9004 13.2646 10.2592 14.9301 10.1555 17.0816C10.1039 17.9916 10.0781 19.6313 10.0781 22.0007C10.0781 24.37 10.1039 26.0097 10.1555 26.9197C10.2586 29.0718 10.8999 30.7373 12.0793 31.9161C13.2587 33.095 14.9242 33.7363 17.0757 33.84C17.9858 33.8915 19.6255 33.9173 21.9948 33.9173C24.3641 33.9173 26.0038 33.8915 26.9139 33.84C29.066 33.7369 30.7314 33.0956 31.9103 31.9161C33.0892 30.7367 33.7304 29.0712 33.8341 26.9197ZM21.9904 12.2227C21.918 12.2227 21.5224 12.2201 20.8035 12.2148C20.0846 12.2096 19.5389 12.2096 19.1664 12.2148C18.7939 12.2201 18.2948 12.2357 17.6692 12.2618C17.0436 12.2878 16.5109 12.3397 16.0712 12.4173C15.6315 12.4949 15.2617 12.5905 14.9616 12.7041C14.4443 12.9109 13.9892 13.2109 13.5965 13.6043C13.2037 13.9976 12.9036 14.4527 12.6962 14.9694C12.5827 15.2695 12.4871 15.6393 12.4095 16.079C12.3319 16.5187 12.28 17.0514 12.254 17.677C12.2279 18.3027 12.2122 18.8017 12.207 19.1742C12.2018 19.5467 12.2018 20.0924 12.207 20.8113C12.2122 21.5302 12.2149 21.9259 12.2149 21.9983C12.2149 22.0707 12.2122 22.4663 12.207 23.1852C12.2018 23.9041 12.2018 24.4498 12.207 24.8223C12.2122 25.1948 12.2279 25.6939 12.254 26.3195C12.28 26.9451 12.3319 27.4778 12.4095 27.9175C12.4871 28.3572 12.5827 28.7271 12.6962 29.0271C12.9031 29.5444 13.2031 29.9995 13.5965 30.3922C13.9898 30.785 14.4448 31.0851 14.9616 31.2925C15.2617 31.406 15.6315 31.5016 16.0712 31.5792C16.5109 31.6568 17.0436 31.7087 17.6692 31.7348C18.2948 31.7608 18.7939 31.7765 19.1664 31.7817C19.5389 31.7869 20.0846 31.7869 20.8035 31.7817C21.5224 31.7765 21.918 31.7739 21.9904 31.7739C22.0629 31.7739 22.4585 31.7765 23.1774 31.7817C23.8963 31.7869 24.442 31.7869 24.8145 31.7817C25.187 31.7765 25.6861 31.7608 26.3117 31.7348C26.9373 31.7087 27.47 31.6568 27.9097 31.5792C28.3494 31.5016 28.7192 31.406 29.0193 31.2925C29.5366 31.0857 29.9917 30.7856 30.3844 30.3922C30.7772 29.9989 31.0773 29.5439 31.2846 29.0271C31.3982 28.7271 31.4938 28.3572 31.5714 27.9175C31.649 27.4778 31.7009 26.9451 31.7269 26.3195C31.753 25.6939 31.7687 25.1948 31.7739 24.8223C31.7791 24.4498 31.7791 23.9041 31.7739 23.1852C31.7687 22.4663 31.766 22.0707 31.766 21.9983C31.766 21.9259 31.7687 21.5302 31.7739 20.8113C31.7791 20.0924 31.7791 19.5467 31.7739 19.1742C31.7687 18.8017 31.753 18.3027 31.7269 17.677C31.7009 17.0514 31.649 16.5187 31.5714 16.079C31.4938 15.6393 31.3982 15.2695 31.2846 14.9694C31.0778 14.4521 30.7778 13.997 30.3844 13.6043C29.9911 13.2115 29.5361 12.9114 29.0193 12.7041C28.7192 12.5905 28.3494 12.4949 27.9097 12.4173C27.47 12.3397 26.9373 12.2878 26.3117 12.2618C25.6861 12.2357 25.187 12.2201 24.8145 12.2148C24.442 12.2096 23.8963 12.2096 23.1774 12.2148C22.4585 12.2201 22.0629 12.2227 21.9904 12.2227ZM29.3662 16.6455C29.6454 16.3663 29.785 16.03 29.785 15.6367C29.785 15.2433 29.6454 14.907 29.3662 14.6278C29.087 14.3486 28.7507 14.209 28.3574 14.209C27.964 14.209 27.6277 14.3486 27.3485 14.6278C27.0693 14.907 26.9297 15.2433 26.9297 15.6367C26.9297 16.03 27.0693 16.3663 27.3485 16.6455C27.6277 16.9247 27.964 17.0643 28.3574 17.0643C28.7507 17.0643 29.087 16.9247 29.3662 16.6455ZM28.1067 21.9984C28.1067 23.6952 27.5117 25.1382 26.3218 26.3275C25.132 27.5168 23.689 28.1117 21.9928 28.1123C20.2966 28.1129 18.8536 27.5179 17.6637 26.3275C16.4738 25.137 15.8789 23.694 15.8789 21.9984C15.8789 20.3028 16.4738 18.8598 17.6637 17.6693C18.8536 16.4789 20.2966 15.884 21.9928 15.8845C23.689 15.8851 25.132 16.4801 26.3218 17.6693C27.5117 18.8586 28.1067 20.3017 28.1067 21.9984ZM25.9595 22.0012C25.9595 20.9046 25.5717 19.9685 24.796 19.1928C24.0203 18.4171 23.0842 18.0293 21.9876 18.0293C20.891 18.0293 19.9548 18.4171 19.1791 19.1928C18.4035 19.9685 18.0156 20.9046 18.0156 22.0012C18.0156 23.0978 18.4035 24.034 19.1791 24.8096C19.9548 25.5853 20.891 25.9732 21.9876 25.9732C23.0842 25.9732 24.0203 25.5853 24.796 24.8096C25.5717 24.034 25.9595 23.0978 25.9595 22.0012Z" fill="white"/>
<defs>
<linearGradient id="paint0_linear_687_35909" x1="22" y1="0" x2="22" y2="44" gradientUnits="userSpaceOnUse">
<stop stop-color="#5773DA"/>
<stop offset="1" stop-color="#D95957"/>
</linearGradient>
</defs>
</svg>
